<?xml version="1.0" encoding="utf-8"?>
<!-- Generator: Adobe Illustrator 25.0.0, SVG Export Plug-In . SVG Version: 6.00 Build 0)  -->
<svg version="1.1" id="vector" xmlns="http://www.w3.org/2000/svg" xmlns:xlink="http://www.w3.org/1999/xlink" x="0px" y="0px"
	 viewBox="0 0 432 432" style="enable-background:new 0 0 432 432;" xml:space="preserve">
<style type="text/css">
	.st0{fill:url(#SVGID_1_);}
	.st1{fill:url(#SVGID_2_);}
</style>
<radialGradient id="SVGID_1_" cx="-1485.1525" cy="-1.4921" r="0.4004" gradientTransform="matrix(128.602 652.9562 -653.274 128.6646 190286.9844 970120.875)" gradientUnits="userSpaceOnUse">
	<stop  offset="0" style="stop-color:#1BA1E3"/>
	<stop  offset="1.000000e-04" style="stop-color:#1BA1E3"/>
	<stop  offset="0.3002" style="stop-color:#5489D6"/>
	<stop  offset="0.5455" style="stop-color:#9B72CB"/>
	<stop  offset="0.8254" style="stop-color:#D96570"/>
	<stop  offset="1" style="stop-color:#F49C46"/>
</radialGradient>
<path class="st0" d="M206.2,290.1L189,329.7c-6.7,15.3-27.7,15.3-34.4,0l-17.2-39.5c-15.3-35.2-43-63.1-77.5-78.4l-47.5-21
	c-15-6.7-15-28.6,0-35.4l46-20.4c35.4-15.7,63.4-44.7,78.6-81l17.4-42.1c6.4-15.7,28.1-15.7,34.6,0l17.4,42.1
	c15,36.3,43.2,65.3,78.6,81l46,20.4c15,6.7,15,28.6,0,35.4l-47.5,21C249.2,227,221.5,254.9,206.2,290.1z"/>
<radialGradient id="SVGID_2_" cx="-1485.1525" cy="-1.4921" r="0.4004" gradientTransform="matrix(128.602 652.9562 -653.274 128.6646 190286.9844 970120.875)" gradientUnits="userSpaceOnUse">
	<stop  offset="0" style="stop-color:#1BA1E3"/>
	<stop  offset="1.000000e-04" style="stop-color:#1BA1E3"/>
	<stop  offset="0.3002" style="stop-color:#5489D6"/>
	<stop  offset="0.5455" style="stop-color:#9B72CB"/>
	<stop  offset="0.8254" style="stop-color:#D96570"/>
	<stop  offset="1" style="stop-color:#F49C46"/>
</radialGradient>
<path class="st1" d="M366.5,414.7l-4.9,11.2c-3.7,8.2-14.8,8.2-18.5,0l-4.9-11.2c-8.6-19.8-24.3-35.7-43.6-44.2l-15-6.7
	c-8.2-3.7-8.2-15.3,0-18.9l14.2-6.2c20-8.8,35.9-25.1,44.2-45.8l4.9-12c3.4-8.4,15-8.4,18.5,0l4.9,12c8.6,20.4,24.3,36.9,44.2,45.8
	l14.2,6.2c8.2,3.7,8.2,15.3,0,18.9l-15,6.7C390.7,379.1,375.1,394.7,366.5,414.7z"/>
</svg>
